<svg xmlns="http://www.w3.org/2000/svg" enable-background="new 0 0 512 512" viewBox="0 0 512 512"><path fill="#ffa91a" d="M369.82,455.4h-24.51v-31.7c0-23.71,18.86-43.23,42.32-44.29c1.21,0.15,2.44,0.22,3.69,0.22
						s2.48-0.07,3.69-0.22c23.46,1.07,42.31,20.58,42.31,44.29v31.7h-24.5H369.82z"/><path fill="#a54af4" d="M99.19,455.4H74.68v-31.7c0-23.71,18.86-43.23,42.32-44.29c1.21,0.15,2.44,0.22,3.69,0.22
						s2.48-0.07,3.69-0.22c23.46,1.07,42.31,20.58,42.31,44.29v31.7h-24.5H99.19z"/><path fill="#e8566f" d="M234.5,212.09h-24.51v-31.71c0-23.7,18.86-43.22,42.32-44.29c1.21,0.15,2.44,0.22,3.69,0.22
						s2.48-0.07,3.69-0.22c23.46,1.07,42.32,20.59,42.32,44.29v31.71H277.5H256H234.5z"/><path fill="#fcc4ae" d="M391.32 317.54c17.09 0 31.04 13.95 31.04 31.04 0 15.85-11.98 28.99-27.35 30.83-.67-.03-1.35-.05-2.03-.05h-3.33c-.68 0-1.35.02-2.02.05-15.37-1.83-27.35-14.98-27.35-30.83C360.28 331.49 374.22 317.54 391.32 317.54zM120.69 317.54c17.09 0 31.04 13.95 31.04 31.04 0 15.85-11.99 29-27.35 30.83-.67-.03-1.35-.05-2.03-.05h-3.33c-.68 0-1.35.02-2.02.05-15.37-1.83-27.35-14.98-27.35-30.83C89.65 331.49 103.59 317.54 120.69 317.54zM256 74.23c17.1 0 31.04 13.94 31.04 31.04 0 15.85-11.98 28.99-27.35 30.82-.67-.03-1.35-.05-2.03-.05h-3.32c-.68 0-1.36.02-2.03.05-15.37-1.83-27.35-14.97-27.35-30.82C224.96 88.17 238.9 74.23 256 74.23z"/><path fill="#f1f2f2" d="M472 328.49v98.34c0 15.72-12.86 28.57-28.57 28.57h-6.11v-31.7c0-23.71-18.85-43.22-42.31-44.29 15.37-1.84 27.35-14.98 27.35-30.83 0-17.09-13.95-31.04-31.04-31.04-17.1 0-31.04 13.95-31.04 31.04 0 15.85 11.98 29 27.35 30.83-23.46 1.06-42.32 20.58-42.32 44.29v31.7h-6.1c-15.72 0-28.58-12.85-28.58-28.57v-98.34c0-15.71 12.86-28.57 28.58-28.57h52.11 52.11C459.14 299.92 472 312.78 472 328.49zM201.37 328.49v98.34c0 15.72-12.86 28.57-28.57 28.57h-6.11v-31.7c0-23.71-18.85-43.22-42.31-44.29 15.36-1.83 27.35-14.98 27.35-30.83 0-17.09-13.95-31.04-31.04-31.04-17.1 0-31.04 13.95-31.04 31.04 0 15.85 11.98 29 27.35 30.83-23.46 1.06-42.32 20.58-42.32 44.29v31.7h-6.1C52.86 455.4 40 442.55 40 426.83v-98.34c0-15.71 12.86-28.57 28.58-28.57h52.11 52.11C188.51 299.92 201.37 312.78 201.37 328.49zM336.69 85.18v98.33c0 15.72-12.86 28.58-28.58 28.58h-6.1v-31.71c0-23.7-18.86-43.22-42.32-44.29 15.37-1.83 27.35-14.97 27.35-30.82 0-17.1-13.94-31.04-31.04-31.04s-31.04 13.94-31.04 31.04c0 15.85 11.98 28.99 27.35 30.82-23.46 1.07-42.32 20.59-42.32 44.29v31.71h-6.1c-15.71 0-28.57-12.86-28.57-28.58V85.18c0-15.72 12.86-28.58 28.57-28.58h104.22C323.83 56.6 336.69 69.46 336.69 85.18z"/><path d="M308.11,217.09H203.89c-18.511,0-33.57-15.064-33.57-33.58V85.18c0-18.516,15.06-33.58,33.57-33.58h104.22
						c18.517,0,33.58,15.064,33.58,33.58v98.33C341.69,202.026,326.627,217.09,308.11,217.09z M203.89,61.6
						c-12.997,0-23.57,10.578-23.57,23.58v98.33c0,13.002,10.574,23.58,23.57,23.58h104.22c13.002,0,23.58-10.578,23.58-23.58V85.18
						c0-13.002-10.578-23.58-23.58-23.58H203.89z"/><path d="M256,249.87c-2.761,0-5-2.239-5-5v-32.78c0-2.761,2.239-5,5-5c2.762,0,5,2.239,5,5v32.78
						C261,247.631,258.762,249.87,256,249.87z"/><path d="M391.32,304.92c-2.762,0-5-2.238-5-5v-37.4c0-6.975-5.675-12.649-12.65-12.649H138.34
						c-6.975,0-12.65,5.674-12.65,12.649v37.4c0,2.762-2.239,5-5,5s-5-2.238-5-5v-37.4c0-12.489,10.161-22.649,22.65-22.649h235.33
						c12.489,0,22.65,10.161,22.65,22.649v37.4C396.32,302.682,394.082,304.92,391.32,304.92z"/><path d="M172.8 460.4H68.58c-18.516 0-33.58-15.06-33.58-33.57v-98.34c0-18.511 15.064-33.57 33.58-33.57H172.8c18.511 0 33.57 15.06 33.57 33.57v98.34C206.37 445.341 191.311 460.4 172.8 460.4zM68.58 304.92c-13.002 0-23.58 10.573-23.58 23.57v98.34c0 12.997 10.578 23.57 23.58 23.57H172.8c12.997 0 23.57-10.573 23.57-23.57v-98.34c0-12.997-10.574-23.57-23.57-23.57H68.58zM443.43 460.4H339.21c-18.517 0-33.58-15.06-33.58-33.57v-98.34c0-18.511 15.063-33.57 33.58-33.57h104.22c18.511 0 33.57 15.06 33.57 33.57v98.34C477 445.341 461.94 460.4 443.43 460.4zM339.21 304.92c-13.002 0-23.58 10.573-23.58 23.57v98.34c0 12.997 10.578 23.57 23.58 23.57h104.22c12.997 0 23.57-10.573 23.57-23.57v-98.34c0-12.997-10.573-23.57-23.57-23.57H339.21zM302.01 217.09c-2.762 0-5-2.239-5-5v-31.71c0-21.074-16.493-38.334-37.547-39.295-.592-.026-1.197-.044-1.803-.044h-3.32c-.605 0-1.211.019-1.808.045-21.049.96-37.542 18.221-37.542 39.295v31.71c0 2.761-2.239 5-5 5s-5-2.239-5-5v-31.71c0-26.432 20.685-48.08 47.092-49.285.749-.034 1.504-.055 2.258-.055h3.32c.754 0 1.508.021 2.252.055 26.413 1.205 47.098 22.854 47.098 49.285v31.71C307.01 214.851 304.771 217.09 302.01 217.09z"/><path d="M256 141.31c-1.474 0-2.918-.086-4.293-.257-18.099-2.162-31.747-17.543-31.747-35.783 0-19.873 16.167-36.04 36.04-36.04 19.872 0 36.04 16.167 36.04 36.04 0 18.245-13.653 33.629-31.759 35.785C258.928 141.223 257.479 141.31 256 141.31zM256 79.23c-14.358 0-26.04 11.682-26.04 26.04 0 13.183 9.863 24.298 22.941 25.855.008.001.017.002.025.003 1.943.242 4.203.242 6.146 0 13.104-1.561 22.967-12.675 22.967-25.858C282.04 90.912 270.358 79.23 256 79.23zM234.5 217.09c-2.761 0-5-2.239-5-5v-38.02c0-2.761 2.239-5 5-5s5 2.239 5 5v38.02C239.5 214.851 237.261 217.09 234.5 217.09zM277.5 217.09c-2.762 0-5-2.239-5-5v-38.02c0-2.761 2.238-5 5-5s5 2.239 5 5v38.02C282.5 214.851 280.262 217.09 277.5 217.09zM166.69 460.4c-2.761 0-5-2.238-5-5v-31.7c0-21.074-16.489-38.335-37.538-39.295-.593-.027-1.198-.045-1.802-.045h-3.33c-.604 0-1.199.018-1.794.045-21.054.95-37.545 18.211-37.545 39.295v31.7c0 2.762-2.239 5-5 5s-5-2.238-5-5v-31.7c0-26.443 20.686-48.092 47.094-49.285.745-.033 1.489-.055 2.246-.055h3.33c.755 0 1.511.021 2.255.055 26.403 1.205 47.084 22.854 47.084 49.285v31.7C171.69 458.162 169.451 460.4 166.69 460.4z"/><path d="M120.69 384.63c-1.468 0-2.912-.086-4.292-.256-18.101-2.16-31.749-17.547-31.749-35.794 0-19.872 16.167-36.04 36.04-36.04s36.04 16.168 36.04 36.04c0 18.249-13.653 33.638-31.759 35.795C123.609 384.543 122.162 384.63 120.69 384.63zM120.69 322.54c-14.358 0-26.04 11.682-26.04 26.04 0 13.188 9.863 24.308 22.941 25.865.007.001.014.002.021.003 1.956.24 4.198.24 6.154 0 13.1-1.562 22.963-12.681 22.963-25.868C146.73 334.222 135.048 322.54 120.69 322.54zM99.19 460.4c-2.761 0-5-2.238-5-5V417.38c0-2.762 2.239-5 5-5s5 2.238 5 5V455.4C104.19 458.162 101.951 460.4 99.19 460.4zM142.19 460.4c-2.761 0-5-2.238-5-5V417.38c0-2.762 2.239-5 5-5s5 2.238 5 5V455.4C147.19 458.162 144.951 460.4 142.19 460.4zM437.32 460.4c-2.762 0-5-2.238-5-5v-31.7c0-21.074-16.489-38.335-37.538-39.295-.594-.027-1.197-.045-1.802-.045h-3.33c-.604 0-1.2.018-1.795.045-21.054.951-37.546 18.211-37.546 39.295v31.7c0 2.762-2.238 5-5 5s-5-2.238-5-5v-31.7c0-26.443 20.687-48.092 47.095-49.285.744-.033 1.489-.055 2.246-.055h3.33c.755 0 1.511.021 2.255.055 26.403 1.205 47.085 22.854 47.085 49.285v31.7C442.32 458.162 440.082 460.4 437.32 460.4z"/><path d="M391.32 384.63c-1.469 0-2.912-.086-4.292-.256-18.101-2.16-31.748-17.547-31.748-35.794 0-19.872 16.168-36.04 36.04-36.04s36.04 16.168 36.04 36.04c0 18.239-13.652 33.628-31.756 35.795C394.239 384.543 392.792 384.63 391.32 384.63zM391.32 322.54c-14.358 0-26.04 11.682-26.04 26.04 0 13.188 9.862 24.308 22.94 25.865.008.001.015.002.021.003 1.955.24 4.196.24 6.155 0 13.099-1.568 22.963-12.688 22.963-25.868C417.36 334.222 405.679 322.54 391.32 322.54zM369.82 460.4c-2.762 0-5-2.238-5-5V417.38c0-2.762 2.238-5 5-5s5 2.238 5 5V455.4C374.82 458.162 372.582 460.4 369.82 460.4zM412.82 460.4c-2.762 0-5-2.238-5-5V417.38c0-2.762 2.238-5 5-5s5 2.238 5 5V455.4C417.82 458.162 415.582 460.4 412.82 460.4z"/></svg>