<svg xmlns="http://www.w3.org/2000/svg" viewBox="0 0 66 66"><path fill="#ccd1fa" d="M3 33.5c0 9.24 4.18 17.5 10.75 23h38.5C58.82 51 63 42.74 63 33.5c0-16.57-13.43-30-30-30S3 16.93 3 33.5z"/><path fill="#e5e8fc" d="M9.97 41.53c0 5.71 2.08 10.94 5.54 14.97h34.98a22.95 22.95 0 0 0 5.54-14.97C56.03 28.81 45.72 18.5 33 18.5S9.97 28.81 9.97 41.53z"/><path fill="#2e3f68" d="M44 65.25H22c-.41 0-.75-.34-.75-.75s.34-.75.75-.75h22c.41 0 .75.34.75.75s-.34.75-.75.75zm6-4H14c-1.52 0-2.75-1.23-2.75-2.75s1.23-2.75 2.75-2.75h50c.41 0 .75.34.75.75s-.34.75-.75.75H14a1.25 1.25 0 0 0 0 2.5h36c.41 0 .75.34.75.75s-.34.75-.75.75zm-42-4H2c-.41 0-.75-.34-.75-.75s.34-.75.75-.75h6c.41 0 .75.34.75.75s-.34.75-.75.75z"/><path fill="#2e3f68" d="M50 61.25a.75.75 0 0 1-.53-.22.598.598 0 0 1-.16-.25.671.671 0 0 1-.06-.28c0-.2.08-.39.22-.53.21-.21.54-.28.81-.17.1.04.18.1.25.17a.75.75 0 0 1 0 1.06c-.07.07-.15.12-.25.16-.09.04-.18.06-.28.06zm4 0a.75.75 0 0 1-.53-.22.598.598 0 0 1-.16-.25.671.671 0 0 1-.06-.28c0-.2.08-.39.22-.53.21-.21.54-.28.81-.17.1.04.18.1.25.17a.75.75 0 0 1 0 1.06c-.07.07-.15.12-.25.16-.09.04-.18.06-.28.06z"/><path fill="#deb8c5" d="M43.91 8.6v15.32c0 .72-.59 1.3-1.3 1.3H21.65c-.72 0-1.3-.58-1.3-1.3V8.6h23.56z"/><path fill="#fff" d="M20.34 8.6h23.57v1.81H20.34z" opacity=".2"/><path fill="#2e3f68" d="M42.61 25.96H21.65c-1.13 0-2.05-.92-2.05-2.05V8.6c0-.41.34-.75.75-.75h23.57c.41 0 .75.34.75.75v15.32a2.06 2.06 0 0 1-2.06 2.04zM21.09 9.35v14.57c0 .31.24.55.55.55H42.6c.31 0 .55-.25.55-.55V9.35H21.09z"/><path fill="#fff" d="m46.16 7.11-2-4.96c-.16-.39-.53-.64-.95-.64H21.04c-.42 0-.8.26-.95.64l-2 4.96c-.27.68.23 1.41.95 1.41h26.17c.73 0 1.23-.74.95-1.41z"/><path fill="#2e3f68" d="M45.21 9.27H19.04c-.59 0-1.14-.29-1.47-.78s-.4-1.11-.18-1.66l2-4.96c.27-.68.92-1.11 1.65-1.11h22.18c.73 0 1.38.44 1.65 1.12l2 4.96c.22.55.15 1.17-.18 1.66s-.89.77-1.48.77zM21.04 2.25c-.11 0-.22.07-.26.17l-2 4.96c-.05.12 0 .21.03.26.03.05.1.12.23.12h26.17c.13 0 .2-.08.23-.12.03-.05.08-.14.03-.26l-2-4.96c-.04-.11-.14-.17-.26-.17H21.04z"/><path fill="#fdcb4d" d="M31.14 15.78v9.44h-7.61v-9.44c0-.64.52-1.16 1.17-1.16h5.28c.64 0 1.16.52 1.16 1.16z"/><path d="M23.53 23.9h7.61v1.32h-7.61z" opacity=".1"/><path fill="#fff" d="M31.14 15.84v-.06c0-.64-.52-1.16-1.16-1.16H24.7c-.64 0-1.17.52-1.17 1.16v.06h7.61z" opacity=".2"/><path fill="#2e3f68" d="M31.14 25.97h-7.61c-.41 0-.75-.34-.75-.75v-9.44c0-1.06.86-1.92 1.92-1.92h5.28c1.05 0 1.91.86 1.91 1.92v9.44c0 .41-.34.75-.75.75zm-6.86-1.5h6.11v-8.69c0-.23-.18-.42-.41-.42H24.7c-.23 0-.42.19-.42.42v8.69z"/><path fill="#02beff" d="M34.01 14.72h7.55v4.37h-7.55z"/><path fill="#fff" d="M34.01 14.72h7.55v1.14h-7.55z" opacity=".2"/><path fill="#2e3f68" d="M41.56 19.84h-7.55c-.41 0-.75-.34-.75-.75v-4.37c0-.41.34-.75.75-.75h7.55c.41 0 .75.34.75.75v4.37c0 .41-.33.75-.75.75zm-6.8-1.5h6.05v-2.87h-6.05v2.87z"/><path fill="#06d506" d="M26.95 39.88V55.2c0 .72-.59 1.3-1.3 1.3H4.68c-.72 0-1.3-.58-1.3-1.3V39.88h23.57z"/><path fill="#fff" d="M3.37 39.88h23.57v1.81H3.37z" opacity=".2"/><path fill="#2e3f68" d="M25.64 57.25H4.68c-1.13 0-2.05-.92-2.05-2.05V39.88c0-.41.34-.75.75-.75h23.57c.41 0 .75.34.75.75V55.2c0 1.13-.93 2.05-2.06 2.05zM4.12 40.63V55.2c0 .31.24.55.55.55h20.96c.31 0 .55-.25.55-.55V40.63H4.12z"/><path fill="#fff" d="m29.2 38.39-2-4.96c-.16-.39-.53-.64-.95-.64H4.07c-.42 0-.8.26-.95.64l-2 4.96c-.27.68.23 1.41.95 1.41h26.17c.73 0 1.23-.73.96-1.41z"/><path fill="#2e3f68" d="M28.24 40.55H2.07c-.59 0-1.14-.29-1.47-.78-.33-.49-.4-1.11-.18-1.66l2-4.96c.27-.68.92-1.11 1.65-1.11h22.18c.73 0 1.38.44 1.65 1.11l2 4.96c.22.55.15 1.17-.18 1.66a1.8 1.8 0 0 1-1.48.78zM4.07 33.53c-.11 0-.22.07-.26.17l-2 4.96c-.05.12 0 .21.03.26s.1.12.23.12h26.17c.13 0 .2-.08.23-.12s.08-.14.03-.26l-2-4.96c-.04-.11-.14-.17-.26-.17H4.07z"/><path fill="#fdcb4d" d="M14.17 47.06v9.44H6.56v-9.44c0-.64.52-1.16 1.17-1.16h5.28c.64 0 1.16.52 1.16 1.16z"/><path d="M6.56 55.18h7.61v1.32H6.56z" opacity=".1"/><path fill="#fff" d="M14.17 47.12v-.06c0-.64-.52-1.16-1.16-1.16H7.73c-.64 0-1.17.52-1.17 1.16v.06h7.61z" opacity=".2"/><path fill="#2e3f68" d="M14.17 57.25H6.56c-.41 0-.75-.34-.75-.75v-9.44c0-1.06.86-1.92 1.92-1.92h5.28c1.05 0 1.91.86 1.91 1.92v9.44c0 .41-.34.75-.75.75zm-6.86-1.5h6.11v-8.69c0-.23-.18-.42-.41-.42H7.73c-.23 0-.42.19-.42.42v8.69z"/><path fill="#02beff" d="M17.04 46h7.55v4.37h-7.55z"/><path fill="#fff" d="M17.04 46h7.55v1.14h-7.55z" opacity=".2"/><path fill="#2e3f68" d="M24.6 51.12h-7.55c-.41 0-.75-.34-.75-.75V46c0-.41.34-.75.75-.75h7.55c.41 0 .75.34.75.75v4.37c0 .41-.34.75-.75.75zm-6.81-1.5h6.05v-2.87h-6.05v2.87z"/><path fill="#ff5892" d="M62.63 39.88V55.2c0 .72-.59 1.3-1.3 1.3H40.36c-.72 0-1.3-.58-1.3-1.3V39.88h23.57z"/><path fill="#fff" d="M39.06 39.88h23.57v1.81H39.06z" opacity=".2"/><path fill="#2e3f68" d="M61.32 57.25H40.36c-1.13 0-2.05-.92-2.05-2.05V39.88c0-.41.34-.75.75-.75h23.57c.41 0 .75.34.75.75V55.2c0 1.13-.92 2.05-2.06 2.05zM39.81 40.63V55.2c0 .31.24.55.55.55h20.96c.31 0 .55-.25.55-.55V40.63H39.81z"/><path fill="#fff" d="m64.88 38.39-2-4.96c-.16-.39-.53-.64-.95-.64H39.75c-.42 0-.8.26-.95.64l-2 4.96c-.27.68.23 1.41.95 1.41h26.17c.73 0 1.23-.73.96-1.41z"/><path fill="#2e3f68" d="M63.93 40.55H37.76c-.59 0-1.14-.29-1.47-.78s-.4-1.11-.18-1.66l2-4.96c.27-.68.92-1.11 1.65-1.11h22.18c.73 0 1.38.44 1.65 1.12l2 4.96c.22.55.15 1.17-.18 1.66s-.89.77-1.48.77zm-24.18-7.02c-.11 0-.22.07-.26.17l-2 4.96c-.05.12 0 .21.03.26.03.05.1.12.23.12h26.17c.13 0 .2-.08.23-.12.03-.05.08-.14.03-.26l-2-4.96c-.04-.11-.14-.17-.26-.17H39.75z"/><path fill="#fdcb4d" d="M49.85 47.06v9.44h-7.61v-9.44c0-.64.52-1.16 1.17-1.16h5.28c.64 0 1.16.52 1.16 1.16z"/><path d="M42.25 55.18h7.61v1.32h-7.61z" opacity=".1"/><path fill="#fff" d="M49.85 47.12v-.06c0-.64-.52-1.16-1.16-1.16h-5.28c-.64 0-1.17.52-1.17 1.16v.06h7.61z" opacity=".2"/><path fill="#2e3f68" d="M49.85 57.25h-7.61c-.41 0-.75-.34-.75-.75v-9.44c0-1.06.86-1.92 1.92-1.92h5.28c1.05 0 1.91.86 1.91 1.92v9.44c0 .41-.33.75-.75.75zM43 55.75h6.11v-8.69c0-.23-.18-.42-.41-.42h-5.28c-.23 0-.42.19-.42.42v8.69z"/><path fill="#02beff" d="M52.73 46h7.55v4.37h-7.55z"/><path fill="#fff" d="M52.73 46h7.55v1.14h-7.55z" opacity=".2"/><path fill="#2e3f68" d="M60.28 51.12h-7.55c-.41 0-.75-.34-.75-.75V46c0-.41.34-.75.75-.75h7.55c.41 0 .75.34.75.75v4.37c0 .41-.34.75-.75.75zm-6.8-1.5h6.05v-2.87h-6.05v2.87zM56.96 33.53c-.41 0-.75-.34-.75-.75V15.47h-12.3c-.41 0-.75-.34-.75-.75s.34-.75.75-.75h13.04c.41 0 .75.34.75.75v18.06c.01.42-.33.75-.74.75z"/><path fill="#ffdad4" d="M58.84 14.43c0 1.93-1.58 3.51-3.53 3.51-1.93 0-3.51-1.58-3.51-3.51 0-1.94 1.58-3.52 3.51-3.52 1.95 0 3.53 1.58 3.53 3.52z"/><path fill="#ff5f4a" d="M55.31 18.69c-2.35 0-4.26-1.91-4.26-4.26 0-2.35 1.91-4.27 4.26-4.27 2.36 0 4.28 1.91 4.28 4.27 0 2.35-1.92 4.26-4.28 4.26zm0-7.03a2.766 2.766 0 0 0 0 5.53c1.53 0 2.78-1.24 2.78-2.76 0-1.53-1.25-2.77-2.78-2.77z"/><path fill="#fff" d="M55.32 13.01c1.7 0 3.11.53 3.43 2.12.05-.23.07-.47.07-.71 0-1.94-1.57-3.51-3.51-3.51s-3.51 1.57-3.51 3.51c0 .24.03.48.07.71.34-1.59 1.76-2.12 3.45-2.12z" opacity=".3"/><path fill="#2e3f68" d="M55.32 18.69c-2.35 0-4.26-1.91-4.26-4.26 0-2.35 1.91-4.26 4.26-4.26 2.35 0 4.26 1.91 4.26 4.26 0 2.35-1.91 4.26-4.26 4.26zm0-7.03c-1.52 0-2.76 1.24-2.76 2.76 0 1.52 1.24 2.76 2.76 2.76 1.52 0 2.76-1.24 2.76-2.76 0-1.52-1.24-2.76-2.76-2.76zM9.1 33.53c-.41 0-.75-.34-.75-.75V14.72c0-.41.34-.75.75-.75h11.24c.41 0 .75.34.75.75s-.34.75-.75.75H9.85v17.31c0 .42-.33.75-.75.75z"/><path fill="#ff5f4a" d="M63.07 14.32c0 3.38-6.11 9.87-6.11 9.87s-6.12-6.49-6.12-9.87 2.74-6.11 6.12-6.11c3.37 0 6.11 2.74 6.11 6.11z"/><path fill="#ff5f4a" d="M63.07 14.32c0 3.38-6.11 9.87-6.11 9.87s-6.12-6.49-6.12-9.87 2.74-6.11 6.12-6.11c3.37 0 6.11 2.74 6.11 6.11z"/><path fill="#fff" d="M63.07 14.32c0 .21-.02.42-.07.66-.66 3.49-6.04 9.21-6.04 9.21s-5.39-5.71-6.05-9.21a3.09 3.09 0 0 1-.07-.66 6.116 6.116 0 0 1 12.23 0z" opacity=".3"/><path fill="#ff5f4a" d="M63 14.78c-.66 3.49-6.04 9.21-6.04 9.21s-5.39-5.71-6.05-9.21c.44-2.94 2.98-5.2 6.05-5.2 3.06 0 5.6 2.25 6.04 5.2z"/><path fill="#2e3f68" d="M56.96 24.94c-.21 0-.4-.08-.55-.24-.65-.69-6.32-6.81-6.32-10.38 0-3.78 3.08-6.86 6.87-6.86 3.78 0 6.86 3.08 6.86 6.86 0 3.57-5.67 9.69-6.32 10.38-.14.15-.33.24-.54.24zm0-15.98c-2.96 0-5.37 2.41-5.37 5.36 0 2.28 3.48 6.64 5.37 8.75 1.88-2.11 5.36-6.48 5.36-8.75 0-2.95-2.4-5.36-5.36-5.36z"/><path fill="#fff" d="M59.7 13.89c0 1.51-1.23 2.75-2.74 2.75-1.52 0-2.75-1.23-2.75-2.75s1.23-2.75 2.75-2.75a2.76 2.76 0 0 1 2.74 2.75z"/><path fill="#2e3f68" d="M56.96 17.39c-1.93 0-3.5-1.57-3.5-3.5s1.57-3.5 3.5-3.5 3.49 1.57 3.49 3.5-1.56 3.5-3.49 3.5zm0-5.49c-1.1 0-2 .9-2 2s.9 2 2 2 1.99-.9 1.99-2-.89-2-1.99-2z"/><path fill="#ff5f4a" d="M15.22 14.32c0 3.38-6.11 9.87-6.11 9.87s-6.12-6.49-6.12-9.87 2.74-6.11 6.12-6.11c3.37 0 6.11 2.74 6.11 6.11z"/><path fill="#ff5f4a" d="M15.22 14.32c0 3.38-6.11 9.87-6.11 9.87s-6.12-6.49-6.12-9.87 2.74-6.11 6.12-6.11c3.37 0 6.11 2.74 6.11 6.11z"/><path fill="#fff" d="M15.22 14.32c0 .21-.02.42-.07.66-.66 3.49-6.04 9.21-6.04 9.21s-5.39-5.71-6.05-9.21a3.09 3.09 0 0 1-.07-.66 6.116 6.116 0 0 1 12.23 0z" opacity=".3"/><path fill="#ff5f4a" d="M15.02 14.97c-.64 3.42-5.92 9.02-5.92 9.02s-5.28-5.59-5.92-9.02A5.988 5.988 0 0 1 9.1 9.88a5.98 5.98 0 0 1 5.92 5.09z"/><path fill="#2e3f68" d="M9.11 24.94c-.21 0-.4-.08-.55-.24-.65-.69-6.32-6.81-6.32-10.38 0-3.78 3.08-6.86 6.87-6.86 3.78 0 6.86 3.08 6.86 6.86 0 3.57-5.67 9.69-6.32 10.38-.14.15-.34.24-.54.24zm0-15.98c-2.96 0-5.37 2.41-5.37 5.36 0 2.28 3.48 6.64 5.37 8.75 1.88-2.11 5.36-6.48 5.36-8.75 0-2.95-2.41-5.36-5.36-5.36z"/><path fill="#fff" d="M11.85 13.89c0 1.51-1.23 2.75-2.74 2.75-1.52 0-2.75-1.23-2.75-2.75s1.23-2.75 2.75-2.75a2.76 2.76 0 0 1 2.74 2.75z"/><path fill="#2e3f68" d="M9.11 17.39c-1.93 0-3.5-1.57-3.5-3.5s1.57-3.5 3.5-3.5 3.49 1.57 3.49 3.5-1.57 3.5-3.49 3.5zm0-5.49c-1.1 0-2 .9-2 2s.9 2 2 2 1.99-.9 1.99-2-.89-2-1.99-2z"/></svg>