<svg xmlns="http://www.w3.org/2000/svg" width="20.911" height="21" viewBox="0 0 20.911 21">
  <g id="icons8-whatsapp" transform="translate(-3.868 -4)">
    <path id="Path_13256" data-name="Path 13256" d="M4.868,24.957l1.4-5.124a9.893,9.893,0,1,1,8.572,4.953h0a9.882,9.882,0,0,1-4.727-1.2Z" transform="translate(-0.479 -0.479)" fill="#fff"/>
    <path id="Path_13257" data-name="Path 13257" d="M4.629,24.978a.26.26,0,0,1-.251-.329l1.375-5.021A10.152,10.152,0,1,1,9.84,23.621L4.695,24.97A.238.238,0,0,1,4.629,24.978Z" transform="translate(-0.24 -0.239)" fill="#fff"/>
    <path id="Path_13258" data-name="Path 13258" d="M14.365,4.521a9.893,9.893,0,0,1,0,19.786h0a9.882,9.882,0,0,1-4.727-1.2L4.389,24.478l1.4-5.124A9.894,9.894,0,0,1,14.365,4.521m0,19.786h0m0,0h0M14.365,4h0A10.416,10.416,0,0,0,5.233,19.423L3.886,24.341a.521.521,0,0,0,.635.641l5.047-1.323A10.415,10.415,0,1,0,14.365,4Z" fill="#cfd8dc"/>
    <path id="Path_13259" data-name="Path 13259" d="M22.271,10.616A8.223,8.223,0,0,0,9.489,20.8l.2.311-.831,3.033,3.112-.816.3.178a8.206,8.206,0,0,0,4.185,1.146h0a8.223,8.223,0,0,0,5.816-14.035Z" transform="translate(-2.09 -2.015)" fill="#40c351"/>
    <path id="Path_13260" data-name="Path 13260" d="M16.92,15.647c-.185-.412-.38-.42-.556-.427-.144-.006-.309-.006-.474-.006a.909.909,0,0,0-.659.309,2.771,2.771,0,0,0-.865,2.061,4.806,4.806,0,0,0,1.009,2.556A10.149,10.149,0,0,0,19.6,23.872c2.088.823,2.513.66,2.966.618a2.5,2.5,0,0,0,1.668-1.175,2.07,2.07,0,0,0,.144-1.175c-.062-.1-.227-.165-.474-.289s-1.463-.722-1.689-.8-.391-.123-.556.124-.638.8-.783.969-.289.186-.536.062a6.766,6.766,0,0,1-1.988-1.227,7.447,7.447,0,0,1-1.375-1.712c-.144-.247-.016-.381.108-.5s.247-.289.371-.433a1.69,1.69,0,0,0,.247-.412.455.455,0,0,0-.021-.433C17.62,17.358,17.14,16.136,16.92,15.647Z" transform="translate(-5.028 -5.371)" fill="#fff" fill-rule="evenodd"/>
  </g>
</svg>
